<svg xmlns="http://www.w3.org/2000/svg" viewBox="0 0 275.21 276.21" fill="#117011" xmlns:v="https://vecta.io/nano"><path d="M121 276.21c-66.826 0-121-54.174-121-121s54.174-121 121-121 121 54.174 121 121c-.077 66.794-54.206 120.923-121 121zm0-222c-55.781 0-101 45.219-101 101s45.219 101 101 101 101-45.219 101-101c-.066-55.753-45.247-100.934-101-101zm42.87 125.21a29.49 29.49 0 0 1-5 17 31.93 31.93 0 0 1-14.24 11.16 47.38 47.38 0 0 1-9.16 2.76 3.58 3.58 0 0 0-2.9 3.5v9.76a3.57 3.57 0 0 1-3.57 3.61h-13.49a3.57 3.57 0 0 1-3.58-3.57v-9.77a3.57 3.57 0 0 0-2.89-3.5 49.49 49.49 0 0 1-9.37-2.78 31.62 31.62 0 0 1-20.36-27.25 3.59 3.59 0 0 1 3.56-4h15a3.57 3.57 0 0 1 3.49 2.84 15 15 0 0 0 2.74 6.14 16.82 16.82 0 0 0 7.37 5.39 4.75 4.75 0 0 0 .44.16 28.65 28.65 0 0 0 10.09 1.7 27.2 27.2 0 0 0 10-1.68l.56-.24a15.14 15.14 0 0 0 6.08-4.42 10.82 10.82 0 0 0 2.34-6.86 9 9 0 0 0-2.11-6.07 16.41 16.41 0 0 0-6.19-4.19h-.12a62.9 62.9 0 0 0-9.79-3.1l-10.84-2.8-.82-.2q-13.58-3.3-21.42-10.32-7.84-7.02-7.8-18.9a28 28 0 0 1 5.2-17 34.89 34.89 0 0 1 14.48-11.37 46.22 46.22 0 0 1 7.63-2.57 3.57 3.57 0 0 0 2.73-3.47v-11.6a3.57 3.57 0 0 1 3.58-3.57H129a3.57 3.57 0 0 1 3.57 3.57v9.92a5.57 5.57 0 0 0 4.15 5.37 41.63 41.63 0 0 1 6.66 2.37 33 33 0 0 1 13.9 11.37 29.06 29.06 0 0 1 4.84 12.83 3.58 3.58 0 0 1-3.55 4h-14.92a3.59 3.59 0 0 1-3.45-2.68 12.83 12.83 0 0 0-4.91-7.17 15.08 15.08 0 0 0-2.72-1.57 24 24 0 0 0-10.21-1.94 25.11 25.11 0 0 0-9.38 1.55l-1 .46a12.64 12.64 0 0 0-4.77 3.8 10 10 0 0 0-2 6.18 8.7 8.7 0 0 0 1.22 5 11.92 11.92 0 0 0 3.7 3.68 19.92 19.92 0 0 0 1.87 1.09 26.56 26.56 0 0 0 3.57 1.6 57.29 57.29 0 0 0 6.59 1.9l9.64 2.3.84.2a66.05 66.05 0 0 1 12 4 39.14 39.14 0 0 1 10.16 6.43 27.2 27.2 0 0 1 6.68 9 28.68 28.68 0 0 1 2.39 11.95zm80.06-79.59a9.82 9.82 0 0 1-6.94-2.87 7.68 7.68 0 0 1-1.56-2.22c-11.94-25.63-30.38-44.1-54.82-54.9a7.82 7.82 0 0 1-2.36-1.62 9.78 9.78 0 0 1 4.39-16.38L262.88.34h0a9.78 9.78 0 0 1 12 12l-21.5 80.24a9.76 9.76 0 0 1-9.44 7.26zM201.19 33a120.65 120.65 0 0 1 40.95 41.21l15.08-56.26zm65.72-17.61h0z"/></svg>