<svg xmlns="http://www.w3.org/2000/svg" width="24" height="24" fill="none" xmlns:v="https://vecta.io/nano"><path d="M18 2l4 4M2 22l1.276-4.68.189-.6a2 2 0 0 1 .208-.359c.092-.126.204-.238.428-.462L14.434 5.566c.198-.198.297-.297.411-.334a.5.5 0 0 1 .309 0c.114.037.213.136.411.334l2.869 2.869c.198.198.297.297.334.411a.5.5 0 0 1 0 .309c-.037.114-.136.213-.334.411L8.101 19.899l-.462.428c-.112.082-.232.151-.359.208-.142.064-.295.105-.6.189L2 22z" stroke="#000" stroke-width="2" stroke-linecap="round" stroke-linejoin="round"/></svg>